<mxfile host="app.diagrams.net" modified="2021-08-27T20:19:49.943Z" agent="5.0 (Windows)" etag="-kkXx8-wTKqNnS8EdgzT" version="14.9.7" type="github">
  <diagram id="XpCy45PFT2rDv3KKutvM" name="Page-1">
    <mxGraphModel dx="1673" dy="958" grid="1" gridSize="10" guides="1" tooltips="1" connect="1" arrows="1" fold="1" page="1" pageScale="1" pageWidth="1169" pageHeight="827" math="0" shadow="0">
      <root>
        <mxCell id="0" />
        <mxCell id="1" parent="0" />
        <mxCell id="CGC_4RJulprVHwF7dZWS-12" value="" style="rounded=0;whiteSpace=wrap;html=1;align=center;verticalAlign=middle;fontFamily=Roboto;fontSource=https%3A%2F%2Ffonts.googleapis.com%2Fcss%3Ffamily%3DRoboto;" vertex="1" parent="1">
          <mxGeometry x="120" y="60" width="1000" height="700" as="geometry" />
        </mxCell>
        <mxCell id="CGC_4RJulprVHwF7dZWS-5" value="&lt;font style=&quot;font-size: 16px&quot; data-font-src=&quot;https://fonts.googleapis.com/css?family=Roboto&quot;&gt;«System»&lt;br&gt;&lt;b&gt;Server&lt;/b&gt;&lt;/font&gt;" style="html=1;dropTarget=0;align=center;verticalAlign=middle;fontFamily=Roboto;fontSource=https%3A%2F%2Ffonts.googleapis.com%2Fcss%3Ffamily%3DRoboto;" vertex="1" parent="1">
          <mxGeometry x="120" width="1000" height="60" as="geometry" />
        </mxCell>
        <mxCell id="CGC_4RJulprVHwF7dZWS-6" value="" style="shape=module;jettyWidth=8;jettyHeight=4;fontFamily=Roboto;fontSource=https%3A%2F%2Ffonts.googleapis.com%2Fcss%3Ffamily%3DRoboto;" vertex="1" parent="CGC_4RJulprVHwF7dZWS-5">
          <mxGeometry x="1" width="20" height="20" relative="1" as="geometry">
            <mxPoint x="-27" y="7" as="offset" />
          </mxGeometry>
        </mxCell>
        <mxCell id="CGC_4RJulprVHwF7dZWS-32" value="" style="group" vertex="1" connectable="0" parent="1">
          <mxGeometry x="210" y="80" width="870" height="640" as="geometry" />
        </mxCell>
        <mxCell id="CGC_4RJulprVHwF7dZWS-16" value="&lt;font style=&quot;font-size: 16px&quot;&gt;«Subsystem»&lt;br&gt;&lt;b&gt;Docker Container&lt;br&gt;&lt;/b&gt;&lt;/font&gt;" style="html=1;dropTarget=0;align=center;verticalAlign=middle;fontFamily=Roboto;fontSource=https%3A%2F%2Ffonts.googleapis.com%2Fcss%3Ffamily%3DRoboto;" vertex="1" parent="CGC_4RJulprVHwF7dZWS-32">
          <mxGeometry width="869.9999999999999" height="70" as="geometry" />
        </mxCell>
        <mxCell id="CGC_4RJulprVHwF7dZWS-17" value="" style="shape=module;jettyWidth=8;jettyHeight=4;fontFamily=Roboto;fontSource=https%3A%2F%2Ffonts.googleapis.com%2Fcss%3Ffamily%3DRoboto;" vertex="1" parent="CGC_4RJulprVHwF7dZWS-16">
          <mxGeometry x="1" width="20" height="20" relative="1" as="geometry">
            <mxPoint x="-27" y="7" as="offset" />
          </mxGeometry>
        </mxCell>
        <mxCell id="CGC_4RJulprVHwF7dZWS-18" value="" style="rounded=0;whiteSpace=wrap;html=1;align=center;verticalAlign=middle;fontFamily=Roboto;fontSource=https%3A%2F%2Ffonts.googleapis.com%2Fcss%3Ffamily%3DRoboto;" vertex="1" parent="CGC_4RJulprVHwF7dZWS-32">
          <mxGeometry y="70" width="869.9999999999999" height="570" as="geometry" />
        </mxCell>
        <mxCell id="CGC_4RJulprVHwF7dZWS-19" style="edgeStyle=orthogonalEdgeStyle;rounded=0;orthogonalLoop=1;jettySize=auto;html=1;exitX=0.5;exitY=1;exitDx=0;exitDy=0;entryX=0.5;entryY=0;entryDx=0;entryDy=0;fontFamily=Roboto;fontSource=https%3A%2F%2Ffonts.googleapis.com%2Fcss%3Ffamily%3DRoboto;" edge="1" parent="CGC_4RJulprVHwF7dZWS-32" source="CGC_4RJulprVHwF7dZWS-16" target="CGC_4RJulprVHwF7dZWS-18">
          <mxGeometry x="304.5" y="80" as="geometry" />
        </mxCell>
        <mxCell id="CGC_4RJulprVHwF7dZWS-23" value="" style="group;fontFamily=Roboto;fontSource=https%3A%2F%2Ffonts.googleapis.com%2Fcss%3Ffamily%3DRoboto;" vertex="1" connectable="0" parent="CGC_4RJulprVHwF7dZWS-32">
          <mxGeometry x="100" y="110" width="290" height="490" as="geometry" />
        </mxCell>
        <mxCell id="CGC_4RJulprVHwF7dZWS-24" style="edgeStyle=orthogonalEdgeStyle;rounded=0;orthogonalLoop=1;jettySize=auto;html=1;exitX=0.5;exitY=1;exitDx=0;exitDy=0;entryX=0.5;entryY=0;entryDx=0;entryDy=0;fontFamily=Roboto;fontSource=https%3A%2F%2Ffonts.googleapis.com%2Fcss%3Ffamily%3DRoboto;" edge="1" parent="CGC_4RJulprVHwF7dZWS-23" source="CGC_4RJulprVHwF7dZWS-25" target="CGC_4RJulprVHwF7dZWS-27">
          <mxGeometry relative="1" as="geometry" />
        </mxCell>
        <mxCell id="CGC_4RJulprVHwF7dZWS-25" value="&lt;font style=&quot;font-size: 16px&quot;&gt;«Subsystem»&lt;br&gt;&lt;b&gt;Req&lt;span style=&quot;white-space: pre&quot;&gt;uests manager&lt;/span&gt;&lt;br&gt;&lt;/b&gt;&lt;/font&gt;" style="html=1;dropTarget=0;align=center;verticalAlign=middle;fontFamily=Roboto;fontSource=https%3A%2F%2Ffonts.googleapis.com%2Fcss%3Ffamily%3DRoboto;" vertex="1" parent="CGC_4RJulprVHwF7dZWS-23">
          <mxGeometry width="290" height="53.59375" as="geometry" />
        </mxCell>
        <mxCell id="CGC_4RJulprVHwF7dZWS-26" value="" style="shape=module;jettyWidth=8;jettyHeight=4;fontFamily=Roboto;fontSource=https%3A%2F%2Ffonts.googleapis.com%2Fcss%3Ffamily%3DRoboto;" vertex="1" parent="CGC_4RJulprVHwF7dZWS-25">
          <mxGeometry x="1" width="20" height="20" relative="1" as="geometry">
            <mxPoint x="-27" y="7" as="offset" />
          </mxGeometry>
        </mxCell>
        <mxCell id="CGC_4RJulprVHwF7dZWS-27" value="" style="rounded=0;whiteSpace=wrap;html=1;align=center;verticalAlign=middle;fontFamily=Roboto;fontSource=https%3A%2F%2Ffonts.googleapis.com%2Fcss%3Ffamily%3DRoboto;" vertex="1" parent="CGC_4RJulprVHwF7dZWS-23">
          <mxGeometry y="53.59375" width="290" height="436.40625" as="geometry" />
        </mxCell>
        <mxCell id="CGC_4RJulprVHwF7dZWS-49" style="edgeStyle=orthogonalEdgeStyle;rounded=0;orthogonalLoop=1;jettySize=auto;html=1;exitX=1;exitY=0.25;exitDx=0;exitDy=0;entryX=0;entryY=0.25;entryDx=0;entryDy=0;fontFamily=Roboto;fontSource=https%3A%2F%2Ffonts.googleapis.com%2Fcss%3Ffamily%3DRoboto;fontSize=14;endArrow=classic;endFill=1;" edge="1" parent="CGC_4RJulprVHwF7dZWS-23" source="CGC_4RJulprVHwF7dZWS-30" target="CGC_4RJulprVHwF7dZWS-47">
          <mxGeometry relative="1" as="geometry" />
        </mxCell>
        <mxCell id="CGC_4RJulprVHwF7dZWS-30" value="" style="fontStyle=0;labelPosition=right;verticalLabelPosition=middle;align=left;verticalAlign=middle;spacingLeft=2;spacingBottom=50;spacing=2;spacingTop=0;fontFamily=Roboto;fontSource=https%3A%2F%2Ffonts.googleapis.com%2Fcss%3Ffamily%3DRoboto;fontSize=14;" vertex="1" parent="CGC_4RJulprVHwF7dZWS-23">
          <mxGeometry x="-20" y="230" width="30" height="30" as="geometry" />
        </mxCell>
        <mxCell id="CGC_4RJulprVHwF7dZWS-44" value="«Component»&lt;br&gt;&lt;blockquote&gt;&lt;b&gt;Consumer&lt;/b&gt;&lt;br&gt;&lt;/blockquote&gt;" style="html=1;dropTarget=0;fontFamily=Roboto;fontSource=https%3A%2F%2Ffonts.googleapis.com%2Fcss%3Ffamily%3DRoboto;fontSize=14;align=center;verticalAlign=middle;" vertex="1" parent="CGC_4RJulprVHwF7dZWS-23">
          <mxGeometry x="55" y="340" width="180" height="90" as="geometry" />
        </mxCell>
        <mxCell id="CGC_4RJulprVHwF7dZWS-45" value="" style="shape=module;jettyWidth=8;jettyHeight=4;" vertex="1" parent="CGC_4RJulprVHwF7dZWS-44">
          <mxGeometry x="1" width="20" height="20" relative="1" as="geometry">
            <mxPoint x="-27" y="7" as="offset" />
          </mxGeometry>
        </mxCell>
        <mxCell id="CGC_4RJulprVHwF7dZWS-58" style="edgeStyle=none;rounded=0;orthogonalLoop=1;jettySize=auto;html=1;exitX=0;exitY=0.75;exitDx=0;exitDy=0;entryX=1;entryY=0.75;entryDx=0;entryDy=0;fontFamily=Roboto;fontSource=https%3A%2F%2Ffonts.googleapis.com%2Fcss%3Ffamily%3DRoboto;fontSize=14;startArrow=none;startFill=0;endArrow=classic;endFill=1;" edge="1" parent="CGC_4RJulprVHwF7dZWS-23" source="CGC_4RJulprVHwF7dZWS-47" target="CGC_4RJulprVHwF7dZWS-30">
          <mxGeometry relative="1" as="geometry">
            <Array as="points">
              <mxPoint x="40" y="178" />
              <mxPoint x="40" y="253" />
            </Array>
          </mxGeometry>
        </mxCell>
        <mxCell id="CGC_4RJulprVHwF7dZWS-47" value="«Component»&lt;br&gt;&lt;blockquote&gt;&lt;b&gt;Producer&lt;/b&gt;&lt;br&gt;&lt;/blockquote&gt;" style="html=1;dropTarget=0;fontFamily=Roboto;fontSource=https%3A%2F%2Ffonts.googleapis.com%2Fcss%3Ffamily%3DRoboto;fontSize=14;align=center;verticalAlign=middle;" vertex="1" parent="CGC_4RJulprVHwF7dZWS-23">
          <mxGeometry x="55" y="110" width="180" height="90" as="geometry" />
        </mxCell>
        <mxCell id="CGC_4RJulprVHwF7dZWS-48" value="" style="shape=module;jettyWidth=8;jettyHeight=4;" vertex="1" parent="CGC_4RJulprVHwF7dZWS-47">
          <mxGeometry x="1" width="20" height="20" relative="1" as="geometry">
            <mxPoint x="-27" y="7" as="offset" />
          </mxGeometry>
        </mxCell>
        <mxCell id="CGC_4RJulprVHwF7dZWS-34" style="edgeStyle=orthogonalEdgeStyle;rounded=0;orthogonalLoop=1;jettySize=auto;html=1;exitX=0.5;exitY=1;exitDx=0;exitDy=0;entryX=0.5;entryY=0;entryDx=0;entryDy=0;fontFamily=Roboto;fontSource=https%3A%2F%2Ffonts.googleapis.com%2Fcss%3Ffamily%3DRoboto;" edge="1" parent="CGC_4RJulprVHwF7dZWS-32" source="CGC_4RJulprVHwF7dZWS-35">
          <mxGeometry x="700" y="190" as="geometry">
            <mxPoint x="635.0000000000005" y="163.58999999999992" as="targetPoint" />
          </mxGeometry>
        </mxCell>
        <mxCell id="CGC_4RJulprVHwF7dZWS-46" style="rounded=0;orthogonalLoop=1;jettySize=auto;html=1;exitX=0.25;exitY=1;exitDx=0;exitDy=0;entryX=1;entryY=0.25;entryDx=0;entryDy=0;fontFamily=Roboto;fontSource=https%3A%2F%2Ffonts.googleapis.com%2Fcss%3Ffamily%3DRoboto;fontSize=14;endArrow=classic;endFill=1;startArrow=none;startFill=0;" edge="1" parent="CGC_4RJulprVHwF7dZWS-32" source="CGC_4RJulprVHwF7dZWS-42" target="CGC_4RJulprVHwF7dZWS-44">
          <mxGeometry relative="1" as="geometry">
            <Array as="points">
              <mxPoint x="595" y="270" />
              <mxPoint x="460" y="270" />
              <mxPoint x="460" y="473" />
            </Array>
          </mxGeometry>
        </mxCell>
        <mxCell id="CGC_4RJulprVHwF7dZWS-42" value="&lt;div&gt;«Subsystem»&lt;/div&gt;&lt;b&gt;MQTT&lt;/b&gt;" style="html=1;dropTarget=0;fontFamily=Roboto;fontSource=https%3A%2F%2Ffonts.googleapis.com%2Fcss%3Ffamily%3DRoboto;fontSize=14;align=center;verticalAlign=middle;" vertex="1" parent="CGC_4RJulprVHwF7dZWS-32">
          <mxGeometry x="550" y="120" width="180" height="90" as="geometry" />
        </mxCell>
        <mxCell id="CGC_4RJulprVHwF7dZWS-43" value="" style="shape=module;jettyWidth=8;jettyHeight=4;" vertex="1" parent="CGC_4RJulprVHwF7dZWS-42">
          <mxGeometry x="1" width="20" height="20" relative="1" as="geometry">
            <mxPoint x="-27" y="7" as="offset" />
          </mxGeometry>
        </mxCell>
        <mxCell id="CGC_4RJulprVHwF7dZWS-50" style="edgeStyle=orthogonalEdgeStyle;rounded=0;orthogonalLoop=1;jettySize=auto;html=1;exitX=1;exitY=0.5;exitDx=0;exitDy=0;entryX=0;entryY=0.5;entryDx=0;entryDy=0;fontFamily=Roboto;fontSource=https%3A%2F%2Ffonts.googleapis.com%2Fcss%3Ffamily%3DRoboto;fontSize=14;endArrow=classic;endFill=1;" edge="1" parent="CGC_4RJulprVHwF7dZWS-32" source="CGC_4RJulprVHwF7dZWS-47" target="CGC_4RJulprVHwF7dZWS-42">
          <mxGeometry relative="1" as="geometry" />
        </mxCell>
        <mxCell id="CGC_4RJulprVHwF7dZWS-53" style="rounded=0;orthogonalLoop=1;jettySize=auto;html=1;exitX=1;exitY=0.75;exitDx=0;exitDy=0;fontFamily=Roboto;fontSource=https%3A%2F%2Ffonts.googleapis.com%2Fcss%3Ffamily%3DRoboto;fontSize=14;startArrow=none;startFill=0;endArrow=classic;endFill=1;entryX=0;entryY=0.5;entryDx=0;entryDy=0;elbow=vertical;" edge="1" parent="CGC_4RJulprVHwF7dZWS-32" source="CGC_4RJulprVHwF7dZWS-44" target="CGC_4RJulprVHwF7dZWS-54">
          <mxGeometry relative="1" as="geometry">
            <mxPoint x="510" y="521" as="targetPoint" />
            <Array as="points">
              <mxPoint x="510" y="518" />
              <mxPoint x="510" y="485" />
            </Array>
          </mxGeometry>
        </mxCell>
        <mxCell id="CGC_4RJulprVHwF7dZWS-54" value="&lt;b&gt;PostgreSQL&lt;/b&gt;" style="shape=datastore;whiteSpace=wrap;html=1;fontFamily=Roboto;fontSource=https%3A%2F%2Ffonts.googleapis.com%2Fcss%3Ffamily%3DRoboto;fontSize=14;align=center;verticalAlign=middle;" vertex="1" parent="CGC_4RJulprVHwF7dZWS-32">
          <mxGeometry x="570" y="370" width="140" height="230" as="geometry" />
        </mxCell>
        <mxCell id="CGC_4RJulprVHwF7dZWS-22" style="edgeStyle=orthogonalEdgeStyle;rounded=0;orthogonalLoop=1;jettySize=auto;html=1;exitX=1;exitY=0.75;exitDx=0;exitDy=0;entryX=0;entryY=0.75;entryDx=0;entryDy=0;fontFamily=Roboto;fontSource=https%3A%2F%2Ffonts.googleapis.com%2Fcss%3Ffamily%3DRoboto;fontSize=14;endArrow=none;endFill=0;startArrow=classic;startFill=1;" edge="1" parent="1" source="CGC_4RJulprVHwF7dZWS-14" target="CGC_4RJulprVHwF7dZWS-21">
          <mxGeometry relative="1" as="geometry" />
        </mxCell>
        <mxCell id="CGC_4RJulprVHwF7dZWS-29" style="edgeStyle=orthogonalEdgeStyle;rounded=0;orthogonalLoop=1;jettySize=auto;html=1;exitX=1;exitY=0.25;exitDx=0;exitDy=0;entryX=0;entryY=0.25;entryDx=0;entryDy=0;fontFamily=Roboto;fontSource=https%3A%2F%2Ffonts.googleapis.com%2Fcss%3Ffamily%3DRoboto;fontSize=14;endArrow=classic;endFill=1;" edge="1" parent="1" source="CGC_4RJulprVHwF7dZWS-14" target="CGC_4RJulprVHwF7dZWS-21">
          <mxGeometry relative="1" as="geometry">
            <Array as="points">
              <mxPoint x="170" y="402" />
              <mxPoint x="170" y="428" />
            </Array>
          </mxGeometry>
        </mxCell>
        <mxCell id="CGC_4RJulprVHwF7dZWS-14" value="Port 3000" style="fontStyle=0;labelPosition=right;verticalLabelPosition=middle;align=left;verticalAlign=middle;spacingLeft=2;spacingBottom=50;spacing=2;spacingTop=0;fontFamily=Roboto;fontSource=https%3A%2F%2Ffonts.googleapis.com%2Fcss%3Ffamily%3DRoboto;fontSize=14;" vertex="1" parent="1">
          <mxGeometry x="100" y="395" width="30" height="30" as="geometry" />
        </mxCell>
        <mxCell id="CGC_4RJulprVHwF7dZWS-31" style="edgeStyle=orthogonalEdgeStyle;rounded=0;orthogonalLoop=1;jettySize=auto;html=1;exitX=1;exitY=0.25;exitDx=0;exitDy=0;entryX=0;entryY=0.25;entryDx=0;entryDy=0;fontFamily=Roboto;fontSource=https%3A%2F%2Ffonts.googleapis.com%2Fcss%3Ffamily%3DRoboto;fontSize=14;endArrow=classic;endFill=1;" edge="1" parent="1" source="CGC_4RJulprVHwF7dZWS-21" target="CGC_4RJulprVHwF7dZWS-30">
          <mxGeometry relative="1" as="geometry" />
        </mxCell>
        <mxCell id="CGC_4RJulprVHwF7dZWS-21" value="Port 3000" style="fontStyle=0;labelPosition=right;verticalLabelPosition=middle;align=left;verticalAlign=middle;spacingLeft=2;spacingBottom=50;spacing=2;spacingTop=0;fontFamily=Roboto;fontSource=https%3A%2F%2Ffonts.googleapis.com%2Fcss%3Ffamily%3DRoboto;fontSize=14;" vertex="1" parent="1">
          <mxGeometry x="190" y="420" width="30" height="30" as="geometry" />
        </mxCell>
        <mxCell id="CGC_4RJulprVHwF7dZWS-56" style="edgeStyle=none;rounded=0;orthogonalLoop=1;jettySize=auto;html=1;exitX=0;exitY=0.75;exitDx=0;exitDy=0;entryX=1;entryY=0.75;entryDx=0;entryDy=0;fontFamily=Roboto;fontSource=https%3A%2F%2Ffonts.googleapis.com%2Fcss%3Ffamily%3DRoboto;fontSize=14;startArrow=classic;startFill=1;endArrow=classic;endFill=1;" edge="1" parent="1" source="CGC_4RJulprVHwF7dZWS-30" target="CGC_4RJulprVHwF7dZWS-21">
          <mxGeometry relative="1" as="geometry" />
        </mxCell>
      </root>
    </mxGraphModel>
  </diagram>
</mxfile>
